<?xml version="1.0" encoding="UTF-8" standalone="no"?>
<svg xmlns="http://www.w3.org/2000/svg" xmlns:xlink="http://www.w3.org/1999/xlink" width="500" zoomAndPan="magnify" viewBox="0 0 375 374.999991" height="500" preserveAspectRatio="xMidYMid meet" version="1.0"><defs><g/><clipPath id="id1"><path d="M 133 97.289062 L 265.703125 97.289062 L 265.703125 186 L 133 186 Z M 133 97.289062 " clip-rule="nonzero"/></clipPath><clipPath id="id2"><path d="M 109 129 L 242 129 L 242 249.539062 L 109 249.539062 Z M 109 129 " clip-rule="nonzero"/></clipPath></defs><rect x="-37.5" width="450" fill="#ffffff" y="-37.499999" height="449.999989" fill-opacity="1"/><rect x="-37.5" width="450" fill="#ffffff" y="-37.499999" height="449.999989" fill-opacity="1"/><rect x="-37.5" width="450" fill="#486ff8" y="-37.499999" height="449.999989" fill-opacity="1"/><g clip-path="url(#id1)"><path fill="#ffde59" d="M 265.507812 130.101562 L 265.507812 155.996094 C 265.507812 169.066406 257.886719 180.355469 246.851562 185.628906 L 246.851562 161.851562 C 246.851562 140.777344 229.742188 123.625 208.710938 123.625 L 141.894531 123.625 C 139.078125 123.625 136.332031 123.933594 133.683594 124.519531 C 136.324219 109.054688 149.765625 97.289062 165.949219 97.289062 L 232.765625 97.289062 C 250.847656 97.289062 265.507812 111.976562 265.507812 130.101562 Z M 265.507812 130.101562 " fill-opacity="1" fill-rule="nonzero"/></g><g clip-path="url(#id2)"><path fill="#5ce1e6" d="M 208.710938 129.035156 L 141.890625 129.035156 C 123.8125 129.035156 109.152344 143.730469 109.152344 161.851562 L 109.152344 187.746094 C 109.152344 205.871094 123.8125 220.558594 141.890625 220.558594 L 144.785156 220.558594 L 144.785156 249.53125 L 148.929688 245.375 C 164.78125 229.484375 186.289062 220.558594 208.707031 220.558594 C 226.789062 220.558594 241.445312 205.863281 241.445312 187.746094 L 241.445312 161.851562 C 241.449219 143.730469 226.792969 129.035156 208.710938 129.035156 Z M 208.710938 129.035156 " fill-opacity="1" fill-rule="nonzero"/></g><g fill="#ffffff" fill-opacity="1"><g transform="translate(59.566407, 325.749999)"><g><path d="M 14.960938 0.390625 C 20.449219 0.390625 24.84375 -2.402344 27.03125 -7.558594 L 22.441406 -9.433594 C 20.957031 -5.722656 18.515625 -4.316406 14.960938 -4.316406 C 9.042969 -4.316406 6.523438 -8.515625 6.523438 -14.003906 C 6.523438 -19.121094 9.042969 -23.320312 14.882812 -23.320312 C 18.476562 -23.320312 21.328125 -21.914062 22.363281 -18.28125 L 26.992188 -20.117188 C 24.765625 -25.273438 20.390625 -28.046875 14.921875 -28.046875 C 5.839844 -28.046875 1.601562 -21.367188 1.601562 -13.808594 C 1.601562 -6.230469 5.878906 0.390625 14.960938 0.390625 Z M 14.960938 0.390625 "/></g></g></g><g fill="#ffffff" fill-opacity="1"><g transform="translate(87.532424, 325.749999)"><g><path d="M 3.554688 0 L 8.515625 0 L 8.515625 -11.523438 L 20.605469 -11.523438 L 20.605469 0 L 25.566406 0 L 25.566406 -27.597656 L 20.605469 -27.597656 L 20.605469 -16.074219 L 8.515625 -16.074219 L 8.515625 -27.597656 L 3.554688 -27.597656 Z M 3.554688 0 "/></g></g></g><g fill="#ffffff" fill-opacity="1"><g transform="translate(116.650678, 325.749999)"><g><path d="M 0.234375 0 L 5.644531 0 L 7.792969 -5.996094 L 18.515625 -5.996094 L 20.644531 0 L 25.996094 0 L 15 -27.597656 L 11.289062 -27.597656 Z M 9.472656 -10.234375 L 13.164062 -20.3125 L 16.835938 -10.234375 Z M 9.472656 -10.234375 "/></g></g></g><g fill="#ffffff" fill-opacity="1"><g transform="translate(142.878589, 325.749999)"><g><path d="M 9.042969 0 L 14.003906 0 L 14.003906 -23.164062 L 22.636719 -23.164062 L 22.636719 -27.597656 L 0.390625 -27.597656 L 0.390625 -23.164062 L 9.042969 -23.164062 Z M 9.042969 0 "/></g></g></g><g fill="#ffffff" fill-opacity="1"><g transform="translate(165.923212, 325.749999)"><g><path d="M 3.554688 0 L 8.476562 0 L 8.476562 -11.445312 L 12.207031 -11.445312 C 17.832031 -11.445312 21.953125 -14.277344 21.953125 -19.433594 C 21.953125 -24.648438 17.832031 -27.597656 12.207031 -27.597656 L 3.554688 -27.597656 Z M 8.476562 -16.074219 L 8.476562 -22.96875 L 12.207031 -22.96875 C 15.566406 -22.96875 17.03125 -21.679688 17.03125 -19.433594 C 17.03125 -17.246094 15.605469 -16.074219 12.207031 -16.074219 Z M 8.476562 -16.074219 "/></g></g></g><g fill="#ffffff" fill-opacity="1"><g transform="translate(188.713959, 325.749999)"><g><path d="M 14.921875 0.390625 C 24.042969 0.390625 28.242188 -6.289062 28.242188 -13.808594 C 28.242188 -21.328125 24.042969 -28.007812 14.921875 -28.007812 C 5.800781 -28.007812 1.601562 -21.328125 1.601562 -13.808594 C 1.601562 -6.289062 5.800781 0.390625 14.921875 0.390625 Z M 14.921875 -4.003906 C 9.003906 -4.003906 6.835938 -8.59375 6.835938 -13.808594 C 6.835938 -19.003906 9.003906 -23.59375 14.921875 -23.59375 C 20.839844 -23.59375 23.007812 -19.003906 23.007812 -13.808594 C 23.007812 -8.59375 20.839844 -4.003906 14.921875 -4.003906 Z M 14.921875 -4.003906 "/></g></g></g><g fill="#ffffff" fill-opacity="1"><g transform="translate(218.554793, 325.749999)"><g><path d="M 3.554688 0.0390625 L 8.515625 0.0390625 L 8.515625 -11.796875 L 11.835938 -11.796875 L 18.632812 0.0390625 L 24.316406 0.0390625 L 16.640625 -12.285156 C 19.765625 -13.359375 22.03125 -15.996094 22.03125 -19.472656 C 22.03125 -24.648438 17.636719 -27.597656 12.480469 -27.597656 L 3.554688 -27.597656 Z M 8.554688 -15.839844 L 8.554688 -23.164062 L 12.519531 -23.164062 C 15.351562 -23.164062 17.128906 -21.679688 17.128906 -19.394531 C 17.128906 -17.324219 15.566406 -15.957031 12.929688 -15.839844 Z M 8.554688 -15.839844 "/></g></g></g><g fill="#ffffff" fill-opacity="1"><g transform="translate(243.317998, 325.749999)"><g><path d="M 9.042969 0 L 14.003906 0 L 14.003906 -23.164062 L 22.636719 -23.164062 L 22.636719 -27.597656 L 0.390625 -27.597656 L 0.390625 -23.164062 L 9.042969 -23.164062 Z M 9.042969 0 "/></g></g></g><g fill="#ffffff" fill-opacity="1"><g transform="translate(266.362621, 325.749999)"><g><path d="M 3.554688 0 L 21.914062 0 L 21.914062 -4.6875 L 8.515625 -4.6875 L 8.515625 -11.523438 L 20.996094 -11.523438 L 20.996094 -16.074219 L 8.515625 -16.074219 L 8.515625 -23.046875 L 21.914062 -23.046875 L 21.914062 -27.597656 L 3.554688 -27.597656 Z M 3.554688 0 "/></g></g></g><g fill="#ffffff" fill-opacity="1"><g transform="translate(290.676669, 325.749999)"><g><path d="M 3.554688 0.0390625 L 8.515625 0.0390625 L 8.515625 -11.796875 L 11.835938 -11.796875 L 18.632812 0.0390625 L 24.316406 0.0390625 L 16.640625 -12.285156 C 19.765625 -13.359375 22.03125 -15.996094 22.03125 -19.472656 C 22.03125 -24.648438 17.636719 -27.597656 12.480469 -27.597656 L 3.554688 -27.597656 Z M 8.554688 -15.839844 L 8.554688 -23.164062 L 12.519531 -23.164062 C 15.351562 -23.164062 17.128906 -21.679688 17.128906 -19.394531 C 17.128906 -17.324219 15.566406 -15.957031 12.929688 -15.839844 Z M 8.554688 -15.839844 "/></g></g></g></svg>